<svg id="visual" viewBox="0 0 900 600" width="900" height="600" xmlns="http://www.w3.org/2000/svg" xmlns:xlink="http://www.w3.org/1999/xlink" version="1.1"><rect width="900" height="600" fill="#111827"></rect><g><g transform="translate(726 475)"><path d="M0 -123.7L96.7 -77.1L120.6 27.5L53.7 111.4L-53.7 111.4L-120.6 27.5L-96.7 -77.1Z" fill="#20293b"></path></g><g transform="translate(587 143)"><path d="M0 -122L95.4 -76.1L118.9 27.1L52.9 109.9L-52.9 109.9L-118.9 27.1L-95.4 -76.1Z" fill="#20293b"></path></g><g transform="translate(159 203)"><path d="M0 -103L80.5 -64.2L100.4 22.9L44.7 92.8L-44.7 92.8L-100.4 22.9L-80.5 -64.2Z" fill="#20293b"></path></g><g transform="translate(371 451)"><path d="M0 -117L91.5 -72.9L114.1 26L50.8 105.4L-50.8 105.4L-114.1 26L-91.5 -72.9Z" fill="#20293b"></path></g></g></svg>